Coordinates
version=1
nRows=43
nColumns=12
inDegrees=yes

Units are S.I. units (second, meters, Newtons, ...)
Angles are in degrees

endheader
time	SC_y	SC_z	SC_x	AC_y	AC_z	AC_x	GH_y	GH_z	GH_yy	EL_x	PS_y
       0.0               -30.9          8.747          59.06           61.0          2.414         -1.924         -100.6          65.86          9.165          51.29          45.41
   0.04249               -30.9          8.749          59.05           61.0          2.414         -1.925         -100.6          65.85          9.177           51.3          45.41
   0.08499              -30.89          8.752          59.05           61.0          2.415         -1.925         -100.6          65.85           9.19          51.31          45.41
    0.1275              -30.89          8.755          59.04           61.0          2.415         -1.926         -100.6          65.85          9.204          51.32          45.41
      0.17              -30.89          8.759          59.04          60.99          2.416         -1.926         -100.6          65.85          9.219          51.33          45.42
    0.2125              -30.88          8.762          59.03          60.99          2.417         -1.927         -100.7          65.84          9.234          51.34          45.42
     0.255              -30.88          8.766          59.03          60.99          2.417         -1.928         -100.7          65.84          9.251          51.35          45.43
    0.2975              -30.88           8.77          59.02          60.99          2.418         -1.928         -100.7          65.84          9.269          51.36          45.43
    0.3399              -30.87          8.774          59.01          60.99          2.419         -1.929         -100.7          65.83          9.288          51.38          45.43
    0.3824              -30.87          8.779          59.01          60.99           2.42          -1.93         -100.7          65.83          9.308          51.39          45.44
    0.4249              -30.86          8.784           59.0          60.99          2.421         -1.931         -100.7          65.83           9.33          51.41          45.44
    0.4674              -30.86           8.79          58.99          60.99          2.422         -1.932         -100.7          65.82          9.353          51.42          45.45
    0.5099              -30.85          8.795          58.98          60.99          2.423         -1.933         -100.8          65.82          9.379          51.44          45.46
    0.5524              -30.85          8.802          58.97          60.98          2.424         -1.934         -100.8          65.81          9.406          51.46          45.46
    0.5949              -30.84          8.808          58.96          60.98          2.425         -1.935         -100.8          65.81          9.436          51.48          45.47
    0.6374              -30.83          8.816          58.95          60.98          2.427         -1.936         -100.8           65.8          9.468           51.5          45.48
    0.6799              -30.82          8.824          58.94          60.98          2.428         -1.937         -100.9          65.79          9.503          51.53          45.48
    0.7224              -30.81          8.832          58.93          60.98           2.43         -1.939         -100.9          65.79          9.541          51.55          45.49
    0.7649               -30.8          8.842          58.91          60.97          2.432         -1.941         -100.9          65.78          9.583          51.58           45.5
    0.8074              -30.79          8.852           58.9          60.97          2.433         -1.942         -101.0          65.77          9.629          51.61          45.51
    0.8499              -30.78          8.864          58.88          60.97          2.436         -1.944         -101.0          65.76          9.679          51.65          45.52
    0.8924              -30.77          8.876          58.86          60.96          2.438         -1.946         -101.0          65.75          9.734          51.68          45.54
    0.9348              -30.76           8.89          58.84          60.96          2.441         -1.949         -101.1          65.74          9.795          51.73          45.55
    0.9773              -30.74          8.906          58.81          60.96          2.443         -1.951         -101.1          65.73          9.862          51.77          45.57
      1.02              -30.72          8.923          58.79          60.95          2.447         -1.954         -101.2          65.71          9.937          51.82          45.58
     1.062               -30.7          8.942          58.76          60.95           2.45         -1.958         -101.3           65.7          10.02          51.88           45.6
     1.105              -30.68          8.963          58.73          60.94          2.454         -1.961         -101.3          65.68          10.11          51.95          45.63
     1.147              -30.66          8.987          58.69          60.94          2.459         -1.965         -101.4          65.66          10.22          52.02          45.65
      1.19              -30.63          9.015          58.65          60.93          2.464          -1.97         -101.5          65.64          10.34           52.1          45.68
     1.232               -30.6          9.045           58.6          60.92          2.469         -1.975         -101.6          65.61          10.47          52.19          45.71
     1.275              -30.57          9.081          58.55          60.91          2.476         -1.981         -101.7          65.58          10.63           52.3          45.74
     1.317              -30.53          9.121          58.49           60.9          2.484         -1.988         -101.9          65.55          10.81          52.42          45.79
      1.36              -30.48          9.168          58.41          60.89          2.492         -1.996         -102.0          65.51          11.01          52.56          45.83
     1.402              -30.42          9.222          58.33          60.88          2.502         -2.005         -102.2          65.46          11.25          52.72          45.89
     1.445              -30.36          9.286          58.23          60.86          2.514         -2.016         -102.4          65.41          11.53          52.92          45.95
     1.487              -30.29           9.36          58.12          60.84          2.528         -2.029         -102.7          65.35          11.85          53.14          46.03
      1.53               -30.2          9.449          57.98          60.82          2.545         -2.044         -103.0          65.28          12.24          53.41          46.12
     1.572              -30.09          9.556          57.82          60.79          2.565         -2.062         -103.3          65.19          12.71          53.73          46.23
     1.615              -29.96          9.685          57.62          60.76          2.589         -2.084         -103.8          65.08          13.28          54.12          46.36
     1.657               -29.8          9.843          57.38          60.72          2.618          -2.11         -104.3          64.95          13.97          54.59          46.52
       1.7              -29.61          10.04          57.09          60.67          2.654         -2.143         -104.9          64.79          14.82          55.18          46.71
     1.742              -29.37          10.28          56.72          60.61          2.699         -2.184         -105.7          64.59          15.88          55.91          46.96
     1.785              -29.06          10.59          56.25          60.53          2.756         -2.236         -106.8          64.34          17.22          56.83          47.27
